
      <svg data-logo="logo" xmlns="http://www.w3.org/2000/svg" viewBox="0 0 333 43">
        <g id="logogram" transform="translate(0, 1) rotate(0)"><path d="M40.1509 20.27C40.1509 31.3157 31.1966 40.27 20.1509 40.27C9.10524 40.27 0.150879 31.3157 0.150879 20.27C0.150879 9.2243 9.10524 0.269989 20.1509 0.269989C31.1966 0.269989 40.1509 9.2243 40.1509 20.27Z" fill="#68DBFF"/><path d="M63.1509 20.27C63.1509 31.3157 54.1964 40.27 43.1508 40.27C32.1052 40.27 23.1509 31.3157 23.1509 20.27C23.1509 9.2243 32.1052 0.269989 43.1508 0.269989C54.1964 0.269989 63.1509 9.2243 63.1509 20.27Z" fill="#FF7917"/><path fill-rule="evenodd" clip-rule="evenodd" d="M31.6509 36.6351C36.792 33.0157 40.1509 27.0351 40.1509 20.27C40.1509 13.5049 36.792 7.52425 31.6509 3.90488C26.5098 7.52425 23.1509 13.5049 23.1509 20.27C23.1509 27.0351 26.5098 33.0157 31.6509 36.6351Z" fill="#5D2C02"/></g>
        <g id="logotype" transform="translate(70, 8.5)"><path fill="#111111" d="M12.60 26L6.84 26L15.54 0.54L22.37 0.54L31.29 26L25.50 26L21.42 13.71Q20.68 11.34 19.92 8.51Q19.16 5.68 18.32 2.33L18.32 2.33L19.45 2.33Q18.65 5.70 17.94 8.54Q17.23 11.39 16.53 13.71L16.53 13.71L12.60 26ZM25.86 20.09L12.27 20.09L12.27 16.00L25.86 16.00L25.86 20.09ZM32.16 0.54L37.37 0.54L37.37 26L32.16 26L32.16 0.54ZM52.50 4.86L44.70 4.86L44.70 0.54L65.50 0.54L65.50 4.86L57.72 4.86L57.72 26L52.50 26L52.50 4.86ZM71.82 26L66.69 26L66.69 6.89L71.65 6.89L71.65 10.23L71.86 10.23Q72.39 8.45 73.62 7.54Q74.86 6.64 76.47 6.64L76.47 6.64Q76.86 6.64 77.32 6.68Q77.77 6.72 78.13 6.81L78.13 6.81L78.13 11.39Q77.79 11.27 77.14 11.20Q76.49 11.13 75.91 11.13L75.91 11.13Q74.74 11.13 73.80 11.64Q72.86 12.14 72.34 13.04Q71.82 13.93 71.82 15.13L71.82 15.13L71.82 26ZM84.00 26.38L84.00 26.38Q82.19 26.38 80.75 25.74Q79.31 25.09 78.48 23.82Q77.65 22.55 77.65 20.65L77.65 20.65Q77.65 19.06 78.24 17.98Q78.83 16.91 79.84 16.26Q80.86 15.61 82.15 15.27Q83.44 14.93 84.86 14.79L84.86 14.79Q86.52 14.62 87.53 14.47Q88.55 14.33 89.02 14.01Q89.49 13.70 89.49 13.08L89.49 13.08L89.49 12.99Q89.49 12.17 89.15 11.61Q88.81 11.05 88.14 10.75Q87.47 10.45 86.50 10.45L86.50 10.45Q85.51 10.45 84.77 10.75Q84.04 11.05 83.58 11.54Q83.12 12.04 82.89 12.65L82.89 12.65L78.19 11.87Q78.69 10.21 79.83 9.05Q80.98 7.88 82.68 7.27Q84.38 6.65 86.50 6.65L86.50 6.65Q88.06 6.65 89.51 7.02Q90.96 7.39 92.11 8.16Q93.27 8.93 93.94 10.16Q94.62 11.39 94.62 13.13L94.62 13.13L94.62 26L89.76 26L89.76 23.35L89.59 23.35Q89.13 24.24 88.36 24.91Q87.59 25.59 86.51 25.98Q85.42 26.38 84.00 26.38ZM85.46 22.77L85.46 22.77Q86.67 22.77 87.59 22.29Q88.50 21.81 89.01 20.99Q89.52 20.17 89.52 19.16L89.52 19.16L89.52 17.10Q89.30 17.27 88.84 17.40Q88.38 17.54 87.82 17.64Q87.25 17.75 86.71 17.83Q86.16 17.92 85.73 17.97L85.73 17.97Q84.79 18.10 84.07 18.41Q83.36 18.72 82.96 19.22Q82.57 19.73 82.57 20.51L82.57 20.51Q82.57 21.25 82.95 21.75Q83.32 22.26 83.96 22.51Q84.60 22.77 85.46 22.77ZM107.93 26L102.10 26L95.06 6.89L100.51 6.89L103.72 16.81Q104.31 18.67 104.74 20.57Q105.18 22.46 105.64 24.50L105.64 24.50L104.54 24.50Q104.99 22.46 105.42 20.57Q105.84 18.67 106.42 16.81L106.42 16.81L109.60 6.89L114.99 6.89L107.93 26ZM124.06 26.38L124.06 26.38Q121.14 26.38 119.02 25.18Q116.90 23.98 115.76 21.78Q114.63 19.57 114.63 16.55L114.63 16.55Q114.63 13.59 115.75 11.37Q116.88 9.15 118.95 7.90Q121.02 6.65 123.80 6.65L123.80 6.65Q125.68 6.65 127.31 7.25Q128.93 7.85 130.16 9.06Q131.39 10.26 132.08 12.07Q132.78 13.88 132.78 16.34L132.78 16.34L132.78 17.78L116.73 17.78L116.73 14.57L130.26 14.57L127.87 15.42Q127.87 13.93 127.42 12.83Q126.96 11.73 126.07 11.12Q125.17 10.52 123.84 10.52L123.84 10.52Q122.52 10.52 121.59 11.13Q120.66 11.75 120.18 12.80Q119.70 13.85 119.70 15.20L119.70 15.20L119.70 17.47Q119.70 19.13 120.26 20.26Q120.81 21.39 121.81 21.95Q122.81 22.51 124.14 22.51L124.14 22.51Q125.05 22.51 125.79 22.26Q126.52 22.00 127.04 21.50Q127.56 20.99 127.84 20.26L127.84 20.26L132.48 21.13Q132.02 22.70 130.88 23.89Q129.73 25.08 128.02 25.73Q126.30 26.38 124.06 26.38ZM134.00 0.54L139.13 0.54L139.13 26L134.00 26L134.00 0.54ZM152.56 26L147.35 26L147.35 0.54L157.28 0.54Q160.18 0.54 162.21 1.64Q164.25 2.74 165.32 4.68Q166.38 6.62 166.38 9.13L166.38 9.13Q166.38 11.66 165.30 13.58Q164.21 15.51 162.16 16.59Q160.10 17.68 157.16 17.68L157.16 17.68L150.76 17.68L150.76 13.47L156.32 13.47Q157.93 13.47 158.96 12.92Q159.99 12.36 160.50 11.39Q161.00 10.41 161.00 9.13L161.00 9.13Q161.00 7.85 160.50 6.88Q159.99 5.90 158.95 5.37Q157.91 4.84 156.30 4.84L156.30 4.84L152.56 4.84L152.56 26ZM167.63 0.54L172.76 0.54L172.76 26L167.63 26L167.63 0.54ZM180.17 26.38L180.17 26.38Q178.36 26.38 176.92 25.74Q175.47 25.09 174.64 23.82Q173.81 22.55 173.81 20.65L173.81 20.65Q173.81 19.06 174.40 17.98Q174.99 16.91 176.01 16.26Q177.03 15.61 178.32 15.27Q179.61 14.93 181.03 14.79L181.03 14.79Q182.68 14.62 183.70 14.47Q184.72 14.33 185.19 14.01Q185.66 13.70 185.66 13.08L185.66 13.08L185.66 12.99Q185.66 12.17 185.32 11.61Q184.97 11.05 184.31 10.75Q183.64 10.45 182.67 10.45L182.67 10.45Q181.68 10.45 180.94 10.75Q180.21 11.05 179.74 11.54Q179.28 12.04 179.06 12.65L179.06 12.65L174.36 11.87Q174.86 10.21 176.00 9.05Q177.15 7.88 178.85 7.27Q180.55 6.65 182.67 6.65L182.67 6.65Q184.22 6.65 185.68 7.02Q187.13 7.39 188.28 8.16Q189.43 8.93 190.11 10.16Q190.78 11.39 190.78 13.13L190.78 13.13L190.78 26L185.93 26L185.93 23.35L185.76 23.35Q185.30 24.24 184.53 24.91Q183.76 25.59 182.68 25.98Q181.59 26.38 180.17 26.38ZM181.62 22.77L181.62 22.77Q182.84 22.77 183.75 22.29Q184.67 21.81 185.18 20.99Q185.69 20.17 185.69 19.16L185.69 19.16L185.69 17.10Q185.47 17.27 185.01 17.40Q184.55 17.54 183.98 17.64Q183.42 17.75 182.87 17.83Q182.33 17.92 181.90 17.97L181.90 17.97Q180.96 18.10 180.24 18.41Q179.52 18.72 179.13 19.22Q178.74 19.73 178.74 20.51L178.74 20.51Q178.74 21.25 179.11 21.75Q179.49 22.26 180.13 22.51Q180.77 22.77 181.62 22.77ZM198.01 14.94L198.01 14.94L198.01 26L192.88 26L192.88 6.89L197.72 6.89L197.81 11.66L197.50 11.66Q198.25 9.27 199.78 7.96Q201.31 6.65 203.74 6.65L203.74 6.65Q205.72 6.65 207.19 7.52Q208.66 8.38 209.48 10.00Q210.30 11.61 210.30 13.85L210.30 13.85L210.30 26L205.17 26L205.17 14.74Q205.17 12.96 204.26 11.95Q203.34 10.94 201.72 10.94L201.72 10.94Q200.64 10.94 199.80 11.41Q198.95 11.88 198.48 12.77Q198.01 13.66 198.01 14.94ZM217.53 14.94L217.53 14.94L217.53 26L212.40 26L212.40 6.89L217.24 6.89L217.32 11.66L217.01 11.66Q217.77 9.27 219.30 7.96Q220.82 6.65 223.25 6.65L223.25 6.65Q225.23 6.65 226.70 7.52Q228.17 8.38 228.99 10.00Q229.81 11.61 229.81 13.85L229.81 13.85L229.81 26L224.69 26L224.69 14.74Q224.69 12.96 223.77 11.95Q222.86 10.94 221.23 10.94L221.23 10.94Q220.16 10.94 219.31 11.41Q218.47 11.88 218.00 12.77Q217.53 13.66 217.53 14.94ZM240.54 26.38L240.54 26.38Q237.62 26.38 235.50 25.18Q233.38 23.98 232.25 21.78Q231.11 19.57 231.11 16.55L231.11 16.55Q231.11 13.59 232.24 11.37Q233.37 9.15 235.43 7.90Q237.50 6.65 240.29 6.65L240.29 6.65Q242.17 6.65 243.79 7.25Q245.42 7.85 246.65 9.06Q247.88 10.26 248.57 12.07Q249.26 13.88 249.26 16.34L249.26 16.34L249.26 17.78L233.21 17.78L233.21 14.57L246.75 14.57L244.36 15.42Q244.36 13.93 243.90 12.83Q243.45 11.73 242.55 11.12Q241.66 10.52 240.32 10.52L240.32 10.52Q239.01 10.52 238.07 11.13Q237.14 11.75 236.67 12.80Q236.19 13.85 236.19 15.20L236.19 15.20L236.19 17.47Q236.19 19.13 236.74 20.26Q237.30 21.39 238.30 21.95Q239.30 22.51 240.63 22.51L240.63 22.51Q241.54 22.51 242.27 22.26Q243.01 22.00 243.53 21.50Q244.05 20.99 244.32 20.26L244.32 20.26L248.97 21.13Q248.51 22.70 247.36 23.89Q246.22 25.08 244.50 25.73Q242.78 26.38 240.54 26.38ZM255.62 26L250.49 26L250.49 6.89L255.44 6.89L255.44 10.23L255.65 10.23Q256.18 8.45 257.42 7.54Q258.66 6.64 260.26 6.64L260.26 6.64Q260.66 6.64 261.11 6.68Q261.56 6.72 261.92 6.81L261.92 6.81L261.92 11.39Q261.58 11.27 260.93 11.20Q260.28 11.13 259.70 11.13L259.70 11.13Q258.54 11.13 257.60 11.64Q256.66 12.14 256.14 13.04Q255.62 13.93 255.62 15.13L255.62 15.13L255.62 26Z"/></g>
        
      </svg>
    